<svg version="1" xmlns="http://www.w3.org/2000/svg" width="1365.333" height="1365.333" viewBox="0 0 1024.000000 1024.000000"><path d="M141.9 7.1c-6.6 1-12.1 5.1-17.7 13.2-10 14.6-17.5 30.7-20.6 44.4-4.7 20.8-6.3 75.8-3.2 108 2.8 29.2 5.8 46.2 16.8 95.8 8.8 39.5 9 42.8 3.5 59.2-2 6.2-4.4 15.4-5.3 20.5-2.2 11.9-2.2 36.3-.1 42.8.9 2.9 1.6 4 2 3 .3-.8 2.7-10.5 5.3-21.5 2.5-11 6.2-25.6 8.1-32.5 7.2-25.6 7.4-29 2.9-48-2.6-10.7-13.3-65.1-16-81.5-3.7-21.7-4.9-35.5-4.9-55.5 0-19.8.1-21.8 5.7-59.5 3.1-21.5 6.2-40.4 6.7-42.2 1.7-5.3 9.1-12.7 16.1-15.9 5.5-2.5 7.5-2.9 15.3-2.9 8.2 0 9.5.3 14.5 3.1 8.4 4.8 14.4 13.6 39.5 58.4 40.9 72.8 53.3 92.8 68.4 111 13.7 16.5 22.6 31.5 25.6 43.1 1.5 5.4 1.6 9.6 1.2 25.9-.8 30.2-4.6 47.6-16.9 78.9-6.4 16.2-9.7 21.3-15.1 23-1.8.6-8.6.9-15.2.8-10.7-.2-12.4 0-16.2 2-2.3 1.3-6.3 4.9-8.9 8-2.5 3.2-14.6 16-26.8 28.4-18.8 19.2-22.9 22.9-26.5 24-3.5 1-7.6 1.1-21.8.1-9.7-.7-17.7-1.1-17.9-.9-.2.2 9.1 7.2 20.7 15.6 19.5 14.2 32.8 25.3 40.7 33.9l3.2 3.5v-3.1c0-2.8.3-3.1 4.8-4 31.6-6.8 87.4-17.5 97.2-18.7 31.2-3.8 75.5-.6 126.9 9.1 10.1 1.9 18.5 3.3 18.6 3.2.2-.2.8-6.3 1.4-13.6 1.3-14.2 4.3-27.8 8.5-38.1 3-7.5 3.3-13.5 1.2-28.3-1.9-13.1-.7-18 5.4-23.2 1.7-1.4 5.2-3.2 7.8-4 14-4.2 26.5-11.1 41.1-22.9 11-8.8 13.4-10 20.1-10 4.5 0 7.5.9 16 4.8 5.8 2.6 19.1 8.1 29.5 12.2 28.6 11.2 36.9 16.2 43.3 25.6 4.3 6.3 6.1 11.7 7.2 21.9 2 17.2 8.8 26.6 25.1 34.8 10.1 5.1 19.4 13.7 23.9 22.1 3.1 5.8 3.3 6 6.3 5.3 1.8-.4 11.8-.7 22.2-.7 28.1 0 54.7 4 98.4 14.8 14.4 3.5 22.9 5.2 24 4.6.9-.5 4.1-1.4 7.1-2.1 11.2-2.6 22.9-11 28.4-20.4 2.8-4.8 6.1-14.4 5.3-15.3-.4-.3-4 1.7-8.1 4.6-11.7 8-19.8 11.5-27 11.4-11.1 0-12.3-.9-53.5-41.7-20.5-20.4-40-40.3-43.1-44.3-7.4-9.2-10.5-15.6-13-27.1-3.4-15.6-8.8-27.9-18.4-42-7.1-10.5-7.8-12.9-6.6-22.3 1.6-13.3 27.7-79.5 41.2-104.9 8.5-16 14.5-23.7 34.8-44.5 19.3-19.8 31.8-34 47.6-54.5 9.5-12.3 15.4-18 25.3-24.5 12.7-8.5 20.8-7.2 27.9 4.5 3.6 6.1 15.5 41.3 20.1 59.5 5.4 21.6 6.5 29.7 6.5 48 0 16.2-.2 17.8-3.8 33.5-8 34.6-19.4 71.6-31 100.3-6.6 16.5-8.2 23.7-6.8 29.8.6 2.4 3.3 10.9 6.1 18.9 6.6 19.1 8.1 26.7 8.8 43.8.3 7.9.9 14 1.4 13.5 1.6-1.6 3.9-23.8 3.9-37.7 0-7.9-.7-19.8-1.6-26.4-1.4-10.9-1.4-12.5.1-18.2 1.9-7.3 8.8-26.8 17.9-50.8 15.9-41.7 22.3-70.7 23.3-105.2 1.2-42.6-6.9-79.1-24.9-111.9-6.1-11.1-18.4-24.4-25.9-27.9-7.5-3.6-13.1-3-21.7 2.2C837.8 43.6 828.6 52 816.5 68c-13.1 17.3-27.4 33-58.5 64-29.7 29.6-36.6 37.5-53.8 62-17.4 24.8-35 57.3-44.6 82.5-6.6 17.3-10 23.6-16.8 31-7.2 7.8-12.9 11.4-19.4 12.1-4.2.5-7.8-.3-23.9-5.5-32.8-10.7-54.1-15.3-79.6-17.3-23.5-1.9-34.2-.5-86.4 10.8-12.7 2.7-19.5 3.7-27 3.8-9.3.1-10.4-.1-15.4-2.9-3.3-1.8-6.9-5-9.2-8-2.1-2.8-11.1-20.2-19.9-38.5-26.9-56.2-32.7-65.5-60.7-97.3-18-20.5-43.1-50.8-66.3-80.2-38.6-48.7-47.9-59-61.5-67.7-12.6-8.2-22.2-11.1-31.6-9.7z"/><path d="M135 163.8c0 29.8 6.7 74.8 19.6 131.2 2.9 12.7 2.4 25.3-1.5 41.2-1.8 7.5-3.1 14.2-2.9 14.8.2.7 2.5-2.9 5.1-7.8 9.5-18 11.1-33.9 5.6-54.9-1.7-6.5-4.4-16.8-6-22.8-5.1-19.4-9.7-47.1-17-102.3-.6-5-1.6-9.2-2-9.2-.5 0-.9 4.4-.9 9.8zM877.6 208.6c-5.4 19.2-12.5 42.5-15.8 51.9-15 42.5-16.1 46.3-16.6 57-.5 11.3.7 18.5 4.3 26.4 3.1 6.5 4 6.3 1.8-.4-1-3.4-1.5-8.8-1.5-16.5-.1-14.3 2.3-22.7 11.7-42.9 7-15.1 9.7-24.1 17.9-61.1 4.8-21.5 8.9-45.1 8.4-47.8-.2-.9-4.7 14.1-10.2 33.4zM346.5 486.1c-16.8 1.4-41 4.7-50.5 7-13.4 3.2-25.6 9.6-32.2 16.8-8 8.6-9.1 12.6-9 31.6.2 24.3 3.4 43.3 11.9 69 5.8 17.8 11.3 27.6 21.3 37.6 7.3 7.4 9.9 9.3 18 13.2 14.1 6.7 28.2 9.6 50.5 10.4 37 1.3 65.9-9.5 88.1-32.9 8.8-9.3 15.3-19.2 22.5-34.3 24.4-51.6 24.8-78.4 1.5-95-15.9-11.2-43.2-20.4-70.1-23.5-10.5-1.2-36.2-1.1-52 .1zM656.6 486.1c-22.9 2.4-49.6 10.3-64.7 19-12.9 7.5-19.9 16.4-22.5 29-1.8 8.8-1.3 16.2 2.2 29.8 4.9 18.7 16.3 44.9 26.7 60.9 15.4 23.8 41.8 40.5 72.1 45.7 16.8 2.9 44.2 1.3 63.1-3.5 21.2-5.4 37.7-19.1 47.5-39.3 7.4-15.5 15.8-47.8 18.1-70 1.4-13.4.7-30.7-1.5-36.6-3.7-9.9-13.5-18.8-26.6-24-21.7-8.6-82.2-14.4-114.4-11z"/><path d="M205.5 528c1.1 13.2 3.5 27.4 6.6 40.1 4.3 17.1 4.2 24.1-.5 38.3-6.4 19.4-10.6 44.5-10.6 64.1 0 34.1 17.2 84.4 41 120.2 11.1 16.7 19.2 26.4 35.3 42.3l14 13.8-.9 6.9c-.4 3.7-.8 10.8-.8 15.8 0 11.4 2.5 17.6 9.6 24 5.8 5.2 12.6 8 24.6 10 4.8.8 11.9 2.5 15.7 3.9 10.1 3.6 19.2 4.8 26.6 3.7 3.4-.6 6.4-1.3 6.7-1.6.3-.3-5.1-6-12-12.8-26.7-26.1-38.8-51.4-38.8-81.1 0-12.1.7-16.4 6.5-39.6 5.8-23.1 12.2-43.6 20.1-64.5 3.6-9.4 6.7-17.7 7-18.5.4-1.3-1.8-1.8-13.3-3.2-35.7-4.3-62.8-16.6-76.4-34.8-9-11.9-23.6-49.9-33.3-86.8-4.4-16.2-5.5-18.6-14.7-29.2-4-4.6-8.6-10.7-10.2-13.5l-2.8-5 .6 7.5zM515.4 546.7c-1.2.2-3 1.4-4.1 2.6-2.6 2.8-8.2 17.2-12.3 31.1-9.4 32.5-26.1 60.3-49 81.9l-9.2 8.7.3 11.2c.3 9.5.8 11.9 2.7 15.1 1.2 2.1 2.2 4.5 2.2 5.4 0 .8-2.4 4.9-5.4 9.1-9.6 13.8-10.9 18-9.1 29.2.6 4.1.4 4.9-2.5 8.5-5.2 6.5-6.9 10.8-8 20.2-1.4 12.3-1.2 21.3.5 24.3 1.8 3.1 1.9 7.6.3 15.2-1.1 5.2-1 6.4 1 12 1.2 3.5 2.2 8.1 2.2 10.3 0 2.2-2.3 10.5-5 18.4-5.6 16-5.8 17.3-3.2 16.4.9-.4 25-18.8 53.6-41.1 28.5-22.2 52.9-40.8 54.1-41.4 2.9-1.3 7.5 1 18.1 9.1 10.7 8 46.1 42.6 66.2 64.6 9 9.9 16.8 18.2 17.3 18.3.6.3.7-4.3.2-12-1-15.9-1-31.7.1-44.8.8-9.8.7-10.9-1.3-14.8-2.8-5.6-6-7.6-10.8-6.8-15.5 2.5-17.3 2-17.3-5.2 0-8 5-12.2 14.5-12.2 5.4 0 10.2-1.8 13-5 3-3.3 2.5-10.8-1.4-19.9-3.8-9-3.8-11.1-.4-18.1l2.7-5.5.1-25c0-18.4-.4-26-1.3-28.8-1.1-3-3-4.8-10-9.4-24.8-16.3-43.2-44.9-56.7-87.9-6.6-20.8-12.8-31.6-18.9-32.9-3.4-.6-20.9-1.3-23.2-.8zm3.6 83.1c2.5 1.1 6.5 3.3 9 4.7l4.6 2.6 5.9-3.6c7.4-4.4 12.6-5.9 18-5 8.9 1.3 16.5 9.3 16.5 17.3 0 3.9-1.6 5-2.4 1.6-1.8-6.9-9.3-9.4-15.6-5.2-8.4 5.7-10.8 18.2-7 36.3l2.3 10.8-2.9 2.4c-1.6 1.2-3.2 2.3-3.5 2.3-1.6 0-6.2-11-9.8-23.4-2.3-7.7-4.1-14.1-4.1-14.3 0-.1-.4-.3-.8-.3-.5 0-2.2 11.3-3.7 25.2l-2.9 25.1-5.9-6.3c-4.4-4.9-5.7-6.9-5.2-8.5 3.1-10.6 3.8-17.3 2.7-28.1-1.7-17.1-4.7-22.4-12.9-22.4-2.4 0-5.7.7-7.3 1.5-3 1.5-3 1.5-3-1.3s2.6-7.1 6-10c5.4-4.6 14-5.2 22-1.4zm-30.4 22.5c-.1 5.7.3 7 3.7 12.4 2 3.4 3.7 7 3.7 8 0 2.8-2.4 5.6-4.5 5.2-4.9-1-8.4-12.7-6.6-22.4.9-4.8 2.6-9.5 3.5-9.5.1 0 .2 2.8.2 6.3zm80.4 15.4c-1.6 5.3-3.4 10-4.2 10.4-1.6 1-3.8-.8-3.8-3.1 0-1.6 9.4-17 10.4-17 .2 0-.9 4.3-2.4 9.7zm-88.1 31.4l5.6 1.9-5.2-.4c-3.1-.2-6.4-1.1-8.5-2.5l-3.3-2.2 2.9.7c1.6.4 5.4 1.5 8.5 2.5zm106.4.9c-3.1 2.8-8.9 5-12.8 4.9-1.9 0 12.8-7.7 15-7.8.6 0-.4 1.3-2.2 2.9zm-56.6 50.7c-2.3 8.9-4.6 16.5-5 16.9-.4.4-.6-6.9-.5-16.2 0-9.3.3-15.3.5-13.4.7 6.4 1.2 6.6 5 1.1 2-2.8 3.7-5 3.9-4.8.2.1-1.6 7.5-3.9 16.4zM796.1 639.1c-12.6 21.8-35 38-63.1 45.8-9.2 2.5-23.9 5.1-29.1 5.1-4.8 0-4.8.4-.8 11.2 4.3 11.7 11.8 27.1 17.7 36.4 6 9.5 7.6 14.6 6.7 22.2-1.4 11.9-5.5 32-8 39.2-3.6 10.1-4.1 19.9-2.1 33.5 1 6 1.9 11.8 2.2 12.7 1.3 4.5 4.2 1.2 17.9-20.5 33.2-52.7 45.9-76.4 53.4-99.2 4.6-14.1 18.1-68.1 18.1-72.5 0-2.5-6.7-17.2-8.8-19.1-.4-.4-2.2 1.9-4.1 5.2z"/><path d="M517.8 798.3c-3.5 2.3-21.4 15.9-39.8 30.3-43.7 34-54.6 42.1-71.7 53.8-7.9 5.4-14.3 10.1-14.3 10.5 0 4 5.1 1.2 31-17.1 12.7-8.9 25.9-18.2 29.3-20.6 7.3-5.2 7.6-5.2 27.8.1 22.2 5.8 33.3 7.2 58.4 7.1 18.6 0 23.9-.3 34.3-2.3 13-2.4 17.2-2.3 20.8.8 1.2.9 5.7 6.4 10 12.2 17.6 23.5 39.2 40.6 57.9 45.5 9.6 2.6 21.3 1.2 30.5-3.6 1.9-1.1 6-2.6 9.1-3.4 7.6-2.1 14.7-7.1 18.7-13 3.4-5.1 6.5-13.9 5.1-14.4-.4-.2-13.1 5.9-28.1 13.5l-27.3 13.8h-7.6c-6.7 0-8.3-.4-15.1-3.8-10-4.9-14.4-9-37.1-34.6-24.2-27.3-42.2-45.7-61.1-62.4-16.6-14.8-19.2-16.7-22.3-16.7-1.2 0-5 1.9-8.5 4.3zM399.6 917.1c6.7 5.3 21.4 14 32.9 19.5 42.4 20 98 25.2 128 11.9 3.1-1.4 9.8-5.2 14.7-8.6 4.9-3.3 13.7-8.4 19.6-11.2 10.4-5.1 10.8-5.2 19.7-5.2 4.9 0 12.2.4 16 .8 7 .8 7 .8 3.5-.8-7.4-3.4-20.1-5.7-28.5-5.2-10 .6-16.6 3.4-25.8 11.1-16.6 13.6-33 19-58.2 18.9-30.3-.1-58.2-7.1-103.2-25.9-11.1-4.6-20.7-8.4-21.4-8.4-.6 0 .6 1.4 2.7 3.1z"/></svg>